<svg width="112" height="112" viewBox="0 0 112 112" fill="none" xmlns="http://www.w3.org/2000/svg">
<path d="M56 102.667C81.774 102.667 102.667 81.774 102.667 56C102.667 30.226 81.774 9.33334 56 9.33334C30.226 9.33334 9.33337 30.226 9.33337 56C9.33337 81.774 30.226 102.667 56 102.667ZM63 37.3333C64.5307 39.368 65.6274 41.748 66.15 44.3333H74.6667V51.3333H66.15C65.3424 55.2857 63.1944 58.8378 60.0693 61.3889C56.9443 63.9399 53.0341 65.3333 49 65.3333H48.1134L65.4734 82.6933L60.5267 87.64L37.3334 64.4467V58.3333H49C51.1719 58.334 53.2906 57.6611 55.0641 56.4075C56.8376 55.1538 58.1787 53.381 58.9027 51.3333H37.3334V44.3333H58.9027C58.1782 42.286 56.8369 40.5136 55.0635 39.2601C53.2901 38.0065 51.1718 37.3334 49 37.3333H37.3334V30.3333H74.6667V37.3333H63Z" fill="#FACC15" fill-opacity="0.8"/>
</svg>
